<?xml version="1.0" encoding="UTF-8" standalone="no"?>
<!-- Created with Inkscape (http://www.inkscape.org/) -->

<svg
   version="1.1"
   id="svg1"
   width="596.00586"
   height="93.943825"
   viewBox="0 0 596.00586 93.943825"
   sodipodi:docname="logo-text.svg"
   inkscape:version="1.4.3 (0d15f75042, 2025-12-25)"
   xmlns:inkscape="http://www.inkscape.org/namespaces/inkscape"
   xmlns:sodipodi="http://sodipodi.sourceforge.net/DTD/sodipodi-0.dtd"
   xmlns="http://www.w3.org/2000/svg"
   xmlns:svg="http://www.w3.org/2000/svg">
  <defs
     id="defs1" />
  <sodipodi:namedview
     id="namedview1"
     pagecolor="#505050"
     bordercolor="#eeeeee"
     borderopacity="1"
     inkscape:showpageshadow="0"
     inkscape:pageopacity="0"
     inkscape:pagecheckerboard="0"
     inkscape:deskcolor="#505050"
     inkscape:zoom="0.73008362"
     inkscape:cx="262.98357"
     inkscape:cy="-41.091183"
     inkscape:window-width="1355"
     inkscape:window-height="1053"
     inkscape:window-x="26"
     inkscape:window-y="23"
     inkscape:window-maximized="0"
     inkscape:current-layer="g1">
    <inkscape:page
       x="0"
       y="0"
       width="596.00586"
       height="93.943825"
       id="page2"
       margin="0"
       bleed="0" />
  </sodipodi:namedview>
  <g
     inkscape:groupmode="layer"
     inkscape:label="Image"
     id="g1"
     transform="translate(-398.38662,-334.38076)">
    <path
       style="fill:#000000"
       d="m 882.18147,427.36611 c -2.0908,-0.49204 -6.2615,-2.05842 -9.2683,-3.48083 l -5.4667,-2.5862 2.079,-3.66872 c 4.4687,-7.8857 4.001,-7.68865 11.3088,-4.76507 10.8149,4.32665 22.3038,3.1049 26.161,-2.78203 0.9173,-1.39998 1.9182,-4.47507 2.2241,-6.83352 0.5418,-4.17712 0.5062,-4.2438 -1.3767,-2.57624 -5.3786,4.76363 -16.8256,6.21163 -25.5649,3.23386 -14.1701,-4.82824 -20.9624,-20.88689 -14.8472,-35.1022 2.5415,-5.90774 5.7321,-9.21788 12.0525,-12.50392 3.6947,-1.92093 6.0341,-2.3396 13.073,-2.3396 7.6783,0 9.0067,0.287 12.7286,2.75 5.0742,3.35795 5.1984,3.36393 5.1984,0.25 0,-2.44615 0.1628,-2.5 7.5579,-2.5 h 7.5579 l -0.3079,27.75 -0.3079,27.75 -2.8864,5.20847 c -3.2678,5.897 -8.2191,9.76662 -15.1753,11.86012 -5.2058,1.56673 -18.7295,1.75033 -24.7399,0.33588 z m 19.9852,-36.84785 c 12.9552,-5.88185 7.5047,-24.37963 -7.1836,-24.37963 -8.0131,0 -13.5,5.21181 -13.5,12.82301 0,6.52381 3.1396,10.48779 9.9416,12.55177 4.0746,1.2364 6.2761,1.03244 10.742,-0.99515 z m -481.64709,17.76929 c -9.9568,-2.85675 -12.25574,-7.60438 -12.84394,-26.52449 l -0.44141,-14.19858 -4.12559,-0.30142 -4.1256,-0.30142 -0.29821,-5.69324 -0.29821,-5.69324 4.69235,-0.30676 4.69235,-0.30676 0.10586,-6.5 0.10586,-6.5 h 7.87298 7.87298 l 0.12702,6.5 0.12702,6.5 6.75,0.29569 6.75,0.29569 v 5.95431 5.95431 h -6.42903 -6.42903 l -0.32097,8.75 c -0.50405,13.74093 0.16929,17.49103 3.41902,19.04192 1.9975,0.95327 3.69606,1.04363 6.26816,0.33344 3.43463,-0.94835 3.56824,-0.8783 5.03906,2.64188 3.22982,7.73004 3.17209,7.94167 -2.63687,9.66675 -5.89465,1.75052 -10.72309,1.86973 -15.8738,0.39192 z m 37.96346,-0.40478 c -8.26502,-2.64402 -12,-7.39852 -12,-15.2756 0,-11.58435 6.82478,-16.36432 24.25,-16.9843 11.36226,-0.40426 12.08754,-0.7935 9.72036,-5.21662 -2.87652,-5.37482 -14.24427,-6.39633 -22.77118,-2.04622 l -4.15604,2.12025 -2.52157,-4.97608 c -1.38686,-2.73684 -2.52157,-5.20448 -2.52157,-5.48364 0,-0.27916 1.4625,-1.26421 3.25,-2.18901 8.46318,-4.3786 22.15217,-5.62752 31.4423,-2.86865 6.92538,2.05662 12.66783,8.2879 14.19347,15.40169 0.61282,2.85752 1.11423,12.59834 1.11423,21.64627 v 16.45078 h -7.5 c -7.45009,0 -7.5,-0.0177 -7.5,-2.65499 0,-2.56135 -0.0682,-2.59326 -1.9338,-0.90492 -4.79007,4.33495 -14.7929,5.6277 -23.0662,2.98104 z m 20.56227,-12.47962 c 1.75976,-1.65322 2.43773,-3.35412 2.43773,-6.11582 v -3.82569 h -7.44424 c -6.3527,0 -7.84118,0.34144 -10.15142,2.32862 -2.15543,1.85403 -2.57183,2.86793 -2.04305,4.97472 1.45097,5.78113 12.11453,7.41663 17.20098,2.63817 z m 115.15523,12.96691 c -13.83488,-3.25773 -22.03958,-13.22043 -22.16021,-26.90842 -0.0792,-8.98424 2.38215,-14.86113 8.54453,-20.40164 6.62048,-5.95238 12.86405,-7.97732 22.77155,-7.38537 8.92942,0.53351 14.23536,2.86895 19.09641,8.40537 4.313,4.91223 5.98988,9.14379 6.71942,16.95625 l 0.60001,6.42539 h -21.11322 c -19.67759,0 -21.07102,0.11899 -20.49261,1.75 2.86768,8.08624 16.07463,11.32413 25.22131,6.18341 l 4.27008,-2.39992 3.91261,4.19453 c 2.15194,2.307 3.91262,4.60076 3.91262,5.09726 0,0.49649 -1.81088,2.15766 -4.02418,3.69148 -6.98327,4.83941 -17.89258,6.59704 -27.25832,4.39166 z m 19.57265,-34.90688 c -0.79118,-3.02547 -6.80654,-7.82019 -10.73589,-8.55734 -4.50194,-0.84457 -11.42941,2.38157 -13.8261,6.43885 -0.95049,1.60904 -1.72816,3.1936 -1.72816,3.52124 0,0.32764 6.03287,0.59571 13.40638,0.59571 12.9106,0 13.38705,-0.0739 12.88377,-1.99846 z m 43.42735,34.96809 c -8.31376,-2.09219 -15.20339,-7.32716 -19.04313,-14.46963 -1.71811,-3.19594 -2.15037,-5.70863 -2.15037,-12.5 0,-9.5976 1.75052,-14.0991 7.63837,-19.6422 8.09654,-7.62246 21.8488,-10.5077 32.77937,-6.87715 5.0789,1.68694 13.05826,8.02573 13.05826,10.37346 0,0.64008 -2.3625,2.6931 -5.25,4.56226 l -5.25,3.39847 -2.5,-2.28523 c -3.77945,-3.45478 -6.43649,-4.52998 -11.18426,-4.52587 -8.08136,0.007 -13.81574,6.09304 -13.81574,14.66299 0,8.13607 6.26813,14.33718 14.4844,14.32953 4.21981,-0.004 10.17301,-2.93992 11.15617,-5.50198 0.8159,-2.1262 1.86945,-1.89947 7.8805,1.69589 5.17481,3.09519 5.29394,3.26638 4.00128,5.75 -4.44915,8.54827 -20.09876,13.97533 -31.80485,11.02946 z m 119.5325,-0.0303 c -1.7875,-0.54808 -3.25,-1.35378 -3.25,-1.79044 0,-0.43667 3.84376,-4.09364 8.54169,-8.1266 4.69793,-4.03297 9.64589,-8.64493 10.99546,-10.24881 l 2.45377,-2.91614 3.00454,2.13943 c 1.6525,1.17668 3.01868,1.99628 3.03597,1.82132 0.0173,-0.17495 0.88731,-5.26057 1.93338,-11.30137 1.04608,-6.04081 1.81943,-11.04807 1.71857,-11.12725 -0.10086,-0.0792 -5.13338,1.1292 -11.18338,2.68527 -6.05,1.55608 -11.225,2.86913 -11.5,2.91789 -0.275,0.0488 1.06152,1.4233 2.97005,3.05454 l 3.47005,2.96589 -7.81858,7.86471 c -9.26543,9.32008 -14.75905,12.86637 -16.56348,10.69216 -2.54319,-3.06436 -1.47854,-9.25376 2.81374,-16.35772 4.53162,-7.50008 4.54585,-8.55294 0.23001,-17.01269 l -2.1649,-4.24354 4.3106,-1.84774 c 9.738,-4.1742 23.96809,-5.35475 31.69285,-2.62929 12.94579,4.56754 15.62065,11.6482 14.45768,38.27105 l -0.66617,15.25 h -7.36593 c -7.19031,0 -7.36592,-0.0596 -7.36592,-2.5 0,-1.375 -0.16832,-2.5 -0.37405,-2.5 -0.20572,0 -2.44265,1.15616 -4.97094,2.56925 -5.15601,2.88175 -13.31123,3.93193 -18.40501,2.37008 z m 180.67933,-0.2424 c -11.5329,-3.27183 -18.7311,-10.60822 -20.9646,-21.36694 -2.0638,-9.94122 1.1823,-19.64873 8.8178,-26.36978 12.477,-10.98265 34.97247,-8.73616 43.89863,4.38389 3.1726,4.66323 5.746,13.62753 5.139,17.90192 -0.3189,2.24585 -0.3949,2.25495 -21.07013,2.52427 -22.9575,0.29904 -23.6083,0.52527 -17.9081,6.22554 5.3849,5.38486 14.2693,6.1247 22.5573,1.87843 l 3.89917,-1.99774 4.3397,4.25908 4.33976,4.25908 -2.0873,2.22184 c -5.36646,5.71229 -21.25793,8.83319 -30.96123,6.08041 z m 21.0707,-33.24659 c 0,-0.30231 -0.652,-1.81049 -1.4489,-3.3515 -4.1476,-8.02045 -16.0273,-9.07544 -22.0184,-1.95536 -4.6217,5.49256 -3.9712,5.85652 10.4673,5.85652 7.15,0 13,-0.24735 13,-0.54966 z M 510.93859,407.2064 c -0.26492,-0.69038 -0.3633,-17.22788 -0.21861,-36.75 l 0.26306,-35.49476 8.25,-0.29044 8.25,-0.29044 v 20.13151 20.13151 l 10.64857,-10.09107 10.64857,-10.09107 h 9.58437 9.58438 l -10.87904,10.91288 -10.87905,10.91289 8.8961,11.64945 c 4.89286,6.4072 10.40171,13.64641 12.24191,16.08712 l 3.34581,4.43766 h -9.58377 -9.58378 l -5.76203,-7.29561 c -3.16912,-4.01259 -6.95771,-8.85009 -8.41909,-10.75 l -2.65706,-3.45439 -3.59294,3.44617 c -3.48143,3.3392 -3.59295,3.67287 -3.59295,10.75 v 7.30383 h -8.03138 c -5.5205,0 -8.18198,-0.39243 -8.51307,-1.25524 z m 187.54445,-35.74476 v -37 h 8 8 v 12.34534 12.34534 l 5.64092,-2.84534 c 13.46527,-6.79202 29.06513,-1.30901 32.88648,11.55889 1.05617,3.55651 1.4726,9.99754 1.4726,22.77727 v 17.8185 h -8 -8 l -0.006,-15.25 c -0.008,-21.6268 -1.50304,-25.50338 -10.20384,-26.45657 -5.45607,-0.59772 -10.74065,2.67915 -12.48414,7.7412 -0.70912,2.05887 -1.21646,9.65491 -1.25,18.71537 l -0.056,15.25 h -8 -8 z m 128,10 v -27 h 7.5 7.5 v 3.08889 3.0889 l 3.03103,-2.55047 c 3.214,-2.70434 8.6717,-4.61252 13.219,-4.62174 2.7386,-0.006 2.75,0.0234 2.75,6.99442 v 7 h -3.5322 c -5.2348,0 -10.1632,2.45182 -12.4422,6.18982 -1.7982,2.94935 -2.0186,5.02702 -2.0219,19.06018 v 15.75 h -8.00003 -8 z"
       id="path1"
       sodipodi:nodetypes="sscsssscsssssssccccssssssssscccccccccccccccccccssssssssssscsssssscsssssscsssssssssscssscssssssssssssssssscsssssssssssscssssssscsssscssscssssssssssssscccssssssssscccccccccccsscccsscsscssccccccsssccccsscccccccccccscscssccccc" />
  </g>
</svg>
